<svg version="1.1" id="Monaca_Logo" xmlns="http://www.w3.org/2000/svg" x="0" y="0" viewBox="0 0 283.5 260" xml:space="preserve"><style>.st0{fill:#424242}</style><path class="st0" d="M52 259.6h-4.5v-34.9l-13.2 22.8c-1.1 1.6-1.6 2.4-2.2 3-1 .8-2.2 1.2-3.6 1.2-1.3 0-2.6-.3-3.6-1.2-.6-.5-1-1-2.2-3L8.9 224.7v34.9H4.4c-1.2 0-2.3-.5-3.2-1.4-.8-.9-1.2-2.1-1.2-3.4v-37.4c0-1.8.6-3.3 1.7-4.6 1.2-1.3 2.6-2 4.2-2h2.5c1.2 0 2.4.4 3.4 1.2 1 .8 1.3 1.6 2.1 2.9l14.6 24.7 14-24.7c1.1-1.6 1.2-2.1 2.1-2.9 1-.9 2.2-1.2 3.4-1.2h2.5c1.7 0 3.1.7 4.2 2s1.7 2.8 1.7 4.6v37.4c0 1.3-.4 2.5-1.2 3.4-.9.9-2 1.4-3.2 1.4zM86.9 260c-6.1 0-11-2.2-14.7-6.4-3.6-4.2-5.5-9.8-5.5-16.6 0-6.8 1.8-12.4 5.5-16.6 3.6-4.3 8.6-6.4 14.7-6.4s11 2.2 14.7 6.4c3.6 4.3 5.5 9.8 5.5 16.6 0 6.7-1.8 12.3-5.5 16.6-3.8 4.2-8.7 6.4-14.7 6.4zm0-37c-4.9 0-8.2 2.4-10.1 7.3-.7 1.8-1 4-1 6.6 0 2.6.4 4.8 1 6.6.7 1.8 1.6 3.2 2.6 4.3 1.1 1.1 2.2 1.9 3.6 2.4 1.3.5 2.7.8 3.9.8 1.3 0 2.6-.3 3.9-.8 1.3-.5 2.5-1.3 3.6-2.3 2.4-2.5 3.7-6.2 3.7-11 0-4.6-1.2-8.3-3.7-10.8-2.1-2.1-4.5-3.1-7.5-3.1zM148.3 259.6h-4.4V232.2c0-2.9-.6-5.2-1.7-6.8-1.1-1.5-2.8-2.2-5.4-2.2-3.9 0-7.6 2.4-11.1 7.2v29.2h-4.5c-1.2 0-2.3-.5-3.2-1.4-.8-.9-1.2-2.1-1.2-3.4v-35.5c0-1.4.4-2.5 1.2-3.5.8-.9 1.9-1.4 3.2-1.4 1.3 0 2.3.5 3.2 1.4.9.9 1.3 2.1 1.3 3.5v.6c1.3-1.3 2.4-2.3 3.5-3 3-1.9 5.9-2.9 8.7-2.9 2.7 0 5 .5 6.8 1.4 1.8.9 3.3 2.2 4.5 3.8 2.5 3.2 3.7 7.3 3.7 12.1v23.5c0 1.3-.4 2.5-1.3 3.4-1 .9-2.1 1.4-3.3 1.4zM174.7 260c-3.7 0-6.8-1.2-9.3-3.6-2.6-2.5-3.9-5.8-3.9-9.9 0-4.4 1.5-7.9 4.6-10.4 3.2-2.7 7.8-4.1 13.6-4.1h7.9c-.1-3.1-.8-5.4-2.1-6.7-1.4-1.4-3.7-2.1-6.8-2.1-2.7 0-5.9.6-9.5 1.9h-.1c-.5.1-1 .2-1.6.2-.8 0-1.6-.4-2.4-1.2-.7-.8-1.1-1.9-1.1-3.4 0-1.1.4-2.7 2.6-3.7 4.3-2 8.8-3.1 13.4-3.1 5.4 0 9.6 1.9 12.6 5.5 2.6 3.2 4 7.1 4 11.8v23.4c0 1.3-.4 2.5-1.3 3.4-.9.9-2 1.4-3.2 1.4h-4.4V255c-1.1.9-2.3 1.8-3.8 2.7-2.5 1.6-5.6 2.3-9.2 2.3zm5.8-19.8c-3.3 0-6 .5-7.8 1.4-1.6.8-2.4 2.1-2.4 4.1 0 2.4.7 5.5 6.8 5.5 2.1 0 4.1-.6 5.9-1.7 1.8-1.1 3.3-2.4 4.4-3.8v-5.5h-6.9zM225.6 260c-5.8 0-10.7-2.1-14.7-6.1-4.2-4.3-6.3-9.9-6.3-16.9 0-6.9 2.1-12.6 6.3-16.9 4-4.1 8.9-6.1 14.7-6.1 3.1 0 5.7.5 7.8 1.4 2 .9 3.6 1.8 4.8 2.6 1.4 1 2.2 2.3 2.2 3.6 0 1.2-.4 2.3-1 3.2-.8 1-1.6 1.5-2.5 1.5-1 0-2.1-.3-3.2-1-2.3-1.4-4.8-2.2-7.4-2.2-4.1 0-7.1 1.2-9.3 3.7-2.2 2.5-3.3 5.9-3.3 10.1 0 4.2 1.1 7.6 3.3 10.1 2.2 2.5 5.2 3.7 9.3 3.7 2.6 0 5.1-.7 7.4-2.2 1.1-.7 2-1 2.9-1 .7 0 1.8.3 2.7 1.5.7.9 1 2 1 3.2 0 1.4-.7 2.6-2.2 3.6-3.7 2.8-7.9 4.2-12.5 4.2zM261.6 260c-3.7 0-6.8-1.2-9.3-3.6-2.6-2.5-3.9-5.8-3.9-9.9 0-4.4 1.5-7.9 4.6-10.4 3.2-2.7 7.8-4.1 13.6-4.1h7.9c-.1-3.1-.8-5.4-2.1-6.7-1.4-1.4-3.7-2.1-6.8-2.1-2.7 0-5.9.6-9.5 1.9h-.1c-.5.1-1 .2-1.6.2-.8 0-1.6-.4-2.4-1.2-.7-.8-1.1-1.9-1.1-3.4 0-1.1.4-2.7 2.6-3.7 4.3-2 8.8-3.1 13.4-3.1 5.4 0 9.6 1.9 12.6 5.5 2.6 3.2 4 7.1 4 11.8v23.4c0 1.3-.4 2.5-1.3 3.4-.9.9-2 1.4-3.2 1.4h-4.4V255c-1.1.9-2.4 1.8-3.8 2.7-2.5 1.6-5.5 2.3-9.2 2.3zm5.9-19.8c-3.3 0-5.9.5-7.8 1.4-1.6.8-2.4 2.1-2.4 4.1 0 2.4.7 5.5 6.8 5.5 2.1 0 4.1-.6 5.9-1.7 1.8-1.1 3.3-2.4 4.4-3.8v-5.5h-6.9z"/><path d="M196.7 0h-110C67.9 0 52.6 15.4 52.6 34.2v110c0 18.8 15.4 34.2 34.2 34.2h110c18.8 0 34.2-15.4 34.2-34.2v-110C230.9 15.4 215.5 0 196.7 0zm-20.3 123.8H107V54.5h69.4v69.3z" fill="#00629d"/></svg>